<svg xmlns="http://www.w3.org/2000/svg" xmlns:xlink="http://www.w3.org/1999/xlink" fill="none" version="1.1" width="24" height="24" viewBox="0 0 24 24"><defs><clipPath id="master_svg0_27_04653"><rect x="0" y="0" width="24" height="24" rx="0"/></clipPath></defs><g clip-path="url(#master_svg0_27_04653)"><path d="M20.142857,10.1226664L20.142857,10C20.142857,5.5813331999999996,16.496215,2,12,2C7.5037847,2,3.8571429,5.5813331999999996,3.8571429,10L3.8571429,10.1226664C3.06864274,10.3986664,2.5,11.1306658,2.5,12L2.5,14.666667C2.5,15.770667,3.41199994,16.666667,4.5357144,16.666667C5.6594283999999995,16.666667,6.5714288,15.770667,6.5714288,14.666667L6.5714288,12C6.5714288,11.1306658,6.0027857000000004,10.3986664,5.2142859,10.1226664L5.2142859,10C5.2142859,6.3173332,8.2515712,3.3333334,12,3.3333334C15.748427,3.3333334,18.785715,6.3173332,18.785715,10L18.785715,10.1226664C17.997214,10.3986664,17.428572000000003,11.1306658,17.428572000000003,12L17.428572000000003,14.666667C17.428572000000003,15.770667,18.340571,16.666667,19.464285,16.666667C20.588001,16.666667,21.5,15.770667,21.5,14.666667L21.5,12C21.5,11.1306658,20.931356,10.3986664,20.142857,10.1226664ZM5.2142859,14.666667C5.2142859,15.033333,4.9102857,15.333333,4.5357144,15.333333C4.1611427,15.333333,3.8571429,15.033333,3.8571429,14.666667L3.8571429,12C3.8571429,11.6306658,4.1611427,11.333333,4.5357144,11.333333C4.9102857,11.333333,5.2142859,11.6306658,5.2142859,12L5.2142859,14.666667ZM20.142857,14.666667C20.142857,15.033333,19.838858,15.333333,19.464285,15.333333C19.089714,15.333333,18.785715,15.033333,18.785715,14.666667L18.785715,12C18.785715,11.6306658,19.089714,11.333333,19.464285,11.333333C19.838858,11.333333,20.142857,11.6306658,20.142857,12L20.142857,14.666667ZM14.714286,20.609333L14.714286,20C14.714286,19.630667,14.410285,19.333334,14.035714,19.333334L11.3214283,19.333334C10.9468575,19.333334,10.6428576,19.630667,10.6428576,20L10.6428576,21.333334C10.6428576,21.700001,10.9468575,22,11.3214283,22L14.035714,22C17.408214,22,20.142857,19.612,20.142857,16.666667L19.464285,16.666667L18.785715,16.666667C18.785715,18.68,17.01193,20.327999,14.714286,20.609333Z" fill="#333333" fill-opacity="1" style="mix-blend-mode:passthrough"/></g></svg>