<svg xmlns="http://www.w3.org/2000/svg" xmlns:xlink="http://www.w3.org/1999/xlink" fill="none" version="1.1" width="20" height="20" viewBox="0 0 20 20"><defs><clipPath id="master_svg0_27_04681"><rect x="-0.5" y="-0.5" width="21" height="21" rx="0"/></clipPath></defs><g clip-path="url(#master_svg0_27_04681)"><path d="M16.5,16.299999L16.5,3.6999999900000002Q16.5,3.20557633,16.155364,2.85467248Q15.807028,2.5,15.312497,2.49999988L5.68750018,2.5Q5.19297783,2.5,4.84464003,2.85467111Q4.49999994,3.20557725,4.49999988,3.69999993L4.5,16.299999Q4.5,16.794431,4.84464188,17.145335Q5.19297627,17.499999000000003,5.68750018,17.499999000000003L15.3125,17.499999000000003Q15.807032,17.499999000000003,16.155364,17.145332Q16.5,16.794431,16.5,16.299999ZM15.312497,3.49999994Q15.5,3.49999994,15.5,3.6999999900000002L15.5,16.299999Q15.5,16.5,15.3125,16.5L5.68750018,16.5Q5.5,16.5,5.5,16.299999L5.49999994,3.70000005Q5.49999997,3.5,5.68750018,3.5L15.312497,3.49999994Z" fill-rule="evenodd" fill="#111111" fill-opacity="1" style="mix-blend-mode:passthrough"/><path d="M8,12.5L13,12.5L13,12.49990001Q13.0492358,12.49989998,13.0975256,12.49029455Q13.145814900000001,12.48068911,13.191302799999999,12.46184736Q13.2367907,12.44300562,13.277729,12.41565165Q13.318667399999999,12.38829768,13.3534822,12.35348266Q13.388297099999999,12.31866765,13.4156508,12.27772954Q13.4430046,12.23679143,13.461846399999999,12.19130343Q13.4806881,12.14581545,13.490293999999999,12.097525649Q13.499899899999999,12.049235854,13.499899899999999,12Q13.499899899999999,11.950764146,13.490293999999999,11.902474351Q13.4806886,11.85418455,13.4618468,11.80869657Q13.4430046,11.76320857,13.4156513,11.72227046Q13.388297099999999,11.68133235,13.3534822,11.64651734Q13.318667399999999,11.61170232,13.277729,11.58434838Q13.2367907,11.55699441,13.191302799999999,11.53815266Q13.145814900000001,11.51931089,13.0975256,11.50970545Q13.0492358,11.50010002,13,11.50009999L13,11.5L8,11.5L8,11.50009999Q7.950764146,11.50010002,7.902474351,11.50970545Q7.85418455,11.51931089,7.80869657,11.53815264Q7.76320857,11.55699438,7.72227046,11.58434835Q7.68133235,11.61170232,7.64651734,11.64651734Q7.61170232,11.68133235,7.58434838,11.72227046Q7.55699441,11.76320857,7.53815266,11.80869657Q7.51931089,11.85418455,7.50970545,11.902474351Q7.50010002,11.950764146,7.50009999,12Q7.50010002,12.049235854,7.50970545,12.097525649Q7.51931089,12.14581545,7.53815264,12.19130343Q7.55699438,12.23679143,7.58434835,12.27772954Q7.61170232,12.31866765,7.64651734,12.35348266Q7.68133235,12.38829768,7.72227046,12.41565162Q7.76320857,12.44300559,7.80869657,12.46184734Q7.85418455,12.48068911,7.902474351,12.49029455Q7.950764146,12.49989998,8,12.49990001L8,12.5Z" fill-rule="evenodd" fill="#111111" fill-opacity="1" style="mix-blend-mode:passthrough"/><path d="M8,14.5L10,14.5L10,14.49990001Q10.0492358,14.49989998,10.0975256,14.49029455Q10.1458154,14.48068911,10.1913033,14.46184736Q10.2367911,14.44300562,10.2777293,14.41565165Q10.318667399999999,14.38829768,10.3534825,14.35348266Q10.3882973,14.31866765,10.4156513,14.27772954Q10.4430051,14.23679143,10.4618471,14.19130343Q10.480689,14.14581545,10.490294500000001,14.097525649Q10.499899899999999,14.049235854,10.4999001,14Q10.499899899999999,13.950764146,10.490294500000001,13.902474351Q10.480689,13.85418455,10.4618471,13.80869657Q10.4430051,13.76320857,10.4156513,13.72227046Q10.3882973,13.68133235,10.3534825,13.64651734Q10.318667399999999,13.61170232,10.2777295,13.58434838Q10.2367911,13.55699441,10.1913033,13.53815266Q10.1458154,13.51931089,10.0975256,13.50970545Q10.0492358,13.50010002,10,13.50009999L10,13.5L8,13.5L8,13.50009999Q7.950764146,13.50010002,7.902474351,13.50970545Q7.85418455,13.51931089,7.80869657,13.53815264Q7.76320857,13.55699438,7.72227046,13.58434835Q7.68133235,13.61170232,7.64651734,13.64651734Q7.61170232,13.68133235,7.58434838,13.72227046Q7.55699441,13.76320857,7.53815266,13.80869657Q7.51931089,13.85418455,7.50970545,13.902474351Q7.50010002,13.950764146,7.50009999,14Q7.50010002,14.049235854,7.50970545,14.097525649Q7.51931089,14.14581545,7.53815264,14.19130343Q7.55699438,14.23679143,7.58434835,14.27772954Q7.61170232,14.31866765,7.64651734,14.35348266Q7.68133235,14.38829768,7.72227046,14.41565162Q7.76320857,14.44300559,7.80869657,14.46184734Q7.85418455,14.48068911,7.902474351,14.49029455Q7.950764146,14.49989998,8,14.49990001L8,14.5Z" fill-rule="evenodd" fill="#111111" fill-opacity="1" style="mix-blend-mode:passthrough"/><path d="M7.5,8.9999998L7.5,6Q7.50000003,5.9507543,7.5096074,5.902454846Q7.51921478,5.85415539,7.53806031,5.8086583Q7.55690581,5.76316121,7.58426523,5.72221494Q7.61162469,5.68126863,7.64644665,5.64644665Q7.68126863,5.61162469,7.72221491,5.5842652600000005Q7.76316121,5.55690581,7.8086583,5.53806028Q7.85415539,5.51921475,7.902454846,5.5096074Q7.9507543,5.50000003,8,5.5L13,5.5Q13.0492458,5.50000003,13.0975447,5.5096074Q13.145844499999999,5.51921478,13.191341399999999,5.53806031Q13.236838299999999,5.55690581,13.2777843,5.58426523Q13.3187308,5.61162469,13.3535528,5.64644665Q13.388374299999999,5.68126863,13.4157343,5.72221491Q13.443093300000001,5.76316121,13.4619389,5.8086583Q13.480784400000001,5.85415539,13.490392199999999,5.902454846Q13.5,5.9507543,13.5,6L13.5,8.9999998Q13.5,9.0492454,13.490392199999999,9.0975447Q13.480784400000001,9.145844199999999,13.4619389,9.1913414Q13.443093300000001,9.2368383,13.4157338,9.2777846Q13.388374299999999,9.3187308,13.3535528,9.3535531Q13.3187308,9.388375,13.2777843,9.4157343Q13.236838299999999,9.4430938,13.191341399999999,9.461939300000001Q13.145844499999999,9.4807849,13.0975447,9.490392400000001Q13.0492458,9.4999998,13,9.5L8,9.5Q7.9507543,9.4999998,7.902454846,9.4903922Q7.85415539,9.4807849,7.8086583,9.461939300000001Q7.76316121,9.4430938,7.72221494,9.4157345Q7.68126863,9.388375,7.64644665,9.3535531Q7.61162469,9.3187308,7.5842652600000005,9.2777848Q7.55690581,9.2368383,7.53806028,9.1913414Q7.51921475,9.145844199999999,7.5096074,9.097544899999999Q7.50000003,9.0492454,7.5,8.9999998ZM8.5,6.5L8.5,8.5L12.500000499999999,8.5L12.500000499999999,6.5L8.5,6.5Z" fill="#111111" fill-opacity="1" style="mix-blend-mode:passthrough"/></g></svg>