<svg xmlns="http://www.w3.org/2000/svg" xmlns:xlink="http://www.w3.org/1999/xlink" fill="none" version="1.1" width="18" height="18" viewBox="0 0 18 18"><defs><clipPath id="master_svg0_60_5878"><rect x="-0.5" y="-0.5" width="19" height="19" rx="0"/></clipPath></defs><g clip-path="url(#master_svg0_60_5878)"><rect x="4.125" y="1.5" width="9.75" height="15" rx="1" fill-opacity="0" stroke-opacity="1" stroke="#9898AB" fill="none" stroke-width="1" style="mix-blend-mode:passthrough"/><path d="M8.25,4.25L9.7500002,4.25L9.7500002,4.24990001Q9.7992361,4.24989998,9.8475258,4.24029455Q9.8958155,4.23068911,9.9413035,4.21184736Q9.9867915,4.19300562,10.0277297,4.16565165Q10.0686679,4.13829768,10.103483,4.10348266Q10.1382978,4.06866765,10.1656517,4.02772954Q10.1930056,3.98679143,10.2118473,3.94130343Q10.230689,3.89581545,10.2402947,3.847525649Q10.2499001,3.799235854,10.249900199999999,3.75Q10.2499001,3.700764146,10.2402946,3.652474351Q10.2306892,3.60418455,10.2118474,3.55869657Q10.1930056,3.51320857,10.1656518,3.47227046Q10.1382978,3.43133235,10.1034828,3.39651734Q10.0686678,3.36170232,10.0277297,3.33434838Q9.9867915,3.30699441,9.9413035,3.28815266Q9.8958155,3.26931089,9.8475258,3.2597054500000002Q9.7992361,3.25010002,9.7500002,3.25009999L9.7500002,3.25L8.25,3.25L8.25,3.25009999Q8.200764146,3.25010002,8.152474351,3.2597054500000002Q8.10418455,3.26931089,8.05869657,3.28815264Q8.01320857,3.30699438,7.97227046,3.33434835Q7.93133235,3.36170232,7.89651734,3.39651734Q7.86170232,3.43133235,7.83434838,3.47227046Q7.80699441,3.51320857,7.78815266,3.55869657Q7.76931089,3.60418455,7.75970545,3.652474351Q7.75010002,3.700764146,7.75009999,3.75Q7.75010002,3.799235854,7.75970545,3.847525649Q7.76931089,3.89581545,7.78815264,3.94130343Q7.80699438,3.98679143,7.83434835,4.02772954Q7.86170232,4.06866765,7.89651734,4.10348266Q7.93133235,4.13829768,7.97227046,4.16565162Q8.01320857,4.19300559,8.05869657,4.21184734Q8.10418455,4.23068911,8.152474351,4.24029455Q8.200764146,4.24989998,8.25,4.24990001L8.25,4.25Z" fill-rule="evenodd" fill="#9898AB" fill-opacity="1" style="mix-blend-mode:passthrough"/><path d="M7.5,14.75L10.4999998,14.75L10.4999998,14.74990001Q10.5492353,14.74989998,10.5975254,14.74029455Q10.6458149,14.73068911,10.691303,14.71184736Q10.7367911,14.69300562,10.7777293,14.66565165Q10.818667399999999,14.63829768,10.8534822,14.60348266Q10.888297099999999,14.56866765,10.9156513,14.52772954Q10.9430051,14.48679143,10.9618471,14.44130343Q10.9806888,14.39581545,10.990294200000001,14.347525649Q10.999899899999999,14.299235854,10.999899899999999,14.25Q10.999899899999999,14.200764146,10.990294,14.152474351Q10.9806886,14.10418455,10.9618468,14.05869657Q10.9430051,14.01320857,10.9156513,13.97227046Q10.8882973,13.93133235,10.8534825,13.89651734Q10.818667399999999,13.86170232,10.7777293,13.83434838Q10.7367911,13.80699441,10.6913033,13.78815266Q10.6458151,13.76931089,10.5975254,13.75970545Q10.5492353,13.75010002,10.4999998,13.75009999L10.4999998,13.75L7.5,13.75L7.5,13.75009999Q7.450764146,13.75010002,7.402474351,13.75970545Q7.35418455,13.76931089,7.30869657,13.78815264Q7.26320857,13.80699438,7.22227046,13.83434835Q7.18133235,13.86170232,7.14651734,13.89651734Q7.11170232,13.93133235,7.08434838,13.97227046Q7.05699441,14.01320857,7.03815266,14.05869657Q7.01931089,14.10418455,7.00970545,14.152474351Q7.00010002,14.200764146,7.00009999,14.25Q7.00010002,14.299235854,7.00970545,14.347525649Q7.01931089,14.39581545,7.03815264,14.44130343Q7.05699438,14.48679143,7.08434835,14.52772954Q7.11170232,14.56866765,7.14651734,14.60348266Q7.18133235,14.63829768,7.22227046,14.66565162Q7.26320857,14.69300559,7.30869657,14.71184734Q7.35418455,14.73068911,7.402474351,14.74029455Q7.450764146,14.74989998,7.5,14.74990001L7.5,14.75Z" fill-rule="evenodd" fill="#9898AB" fill-opacity="1" style="mix-blend-mode:passthrough"/></g></svg>