<svg xmlns="http://www.w3.org/2000/svg" xmlns:xlink="http://www.w3.org/1999/xlink" fill="none" version="1.1" width="20" height="20" viewBox="0 0 20 20"><defs><clipPath id="master_svg0_27_04669"><rect x="-0.6000000238418579" y="-0.6000000238418579" width="21.200000047683716" height="21.200000047683716" rx="0"/></clipPath></defs><g clip-path="url(#master_svg0_27_04669)"><path d="M5.9901110875,3.06406248L3.8765195875,3.06406248Q2.7658719075000002,3.06406242,2.1105305575,3.92926693Q1.4400092975,4.8145124,1.7981276775000001,5.875878999999999Q3.5206148875,10.9806738,6.0563830875,13.5163918Q8.5921511875,16.0522095,13.6968946875,17.7746375Q14.7582606875,18.1327905,15.6435216875,17.4622645Q16.508733687499998,16.8069225,16.508733687499998,15.6962565L16.508733687499998,13.5822992Q16.508733687499998,12.7392168,15.7718716875,12.329565L13.9304916875,11.3058114Q13.2694266875,10.9382868,12.5929956875,11.276556L10.8181933875,12.1639385Q9.6528324875,11.8802853,8.672666987500001,10.900118800000001Q7.6918062875,9.9192581,7.4042853875,8.7489657L8.291493387500001,6.97455Q8.629421687499999,6.2985785,8.262650987499999,5.6378626999999994L7.2432975875,3.80173178Q6.8338431875,3.06406248,5.9901110875,3.06406248ZM3.0671031475,4.65381414Q3.3623170875,4.26406246,3.8765194875,4.2640625199999995L5.9901110875,4.2640625199999995Q6.1274566875000005,4.2640625199999995,6.1940903875,4.38410956L7.2134880875,6.2203202Q7.2731871875,6.3278637,7.2181443875,6.4379668L6.2361628875,8.4019294Q6.1448902875,8.584475000000001,6.1838564875,8.7848129Q6.5034556875,10.4279637,7.8241390875,11.7486467Q9.1452726875,13.0697794,10.7845534875,13.3843002L10.7845973875,13.3843088Q10.9841727875,13.4225855,11.1659335875,13.331707L13.1296426875,12.3498735Q13.2397856875,12.2947931,13.3473976875,12.3546209L15.1887676875,13.3783674Q15.3087336875,13.4450626,15.3087336875,13.5822992L15.3087336875,15.6962565Q15.3087336875,16.2104745,14.9189786875,16.505688499999998Q14.5400746875,16.792683500000003,14.0805716875,16.6376275Q9.242016787499999,15.0050165,6.9049191875,12.6678724Q4.5678042875,10.3308029,2.9351441275,5.492221Q2.7801033575,5.0327213,3.0671031475,4.65381414Z" fill-rule="evenodd" fill="#111111" fill-opacity="1" style="mix-blend-mode:passthrough"/></g></svg>