<svg xmlns="http://www.w3.org/2000/svg" xmlns:xlink="http://www.w3.org/1999/xlink" fill="none" version="1.1" width="36" height="36" viewBox="0 0 36 36"><defs><clipPath id="master_svg0_39_4579"><rect x="8" y="8" width="20" height="20" rx="0"/></clipPath></defs><rect x="0" y="0" width="36" height="36" rx="18" fill="#C86AC8" fill-opacity="1"/><g clip-path="url(#master_svg0_39_4579)"><path d="M25.0125766875,9.753237158L10.3450760275,15.4249043C9.9663661975,15.5714951,9.713912392,15.9325533,9.70623455048,16.3385711C9.6985567091,16.7445893,9.9371795775,17.114933999999998,10.3100759375,17.2757378L16.235075487499998,19.825737L18.7950763875,25.762403C18.9559497875,26.135725,19.3268050875,26.37451,19.7332346875,26.366463C20.139660687499997,26.358414,20.5007726875,26.105135,20.6467416875,25.725737L26.3067416875,11.0465699C26.4487646875,10.67738229,26.3598196875,10.25917381,26.0798436875,9.97973901C25.7998676875,9.70030384,25.3814866875,9.612165831,25.0125746875,9.754903033L25.0125766875,9.753237158ZM24.2092426875,11.8507371L19.6784095875,23.601570000000002L17.7650756875,19.165737200000002L17.6950759875,19.022402800000002C17.5162477875,18.6974573,17.2341370875,18.4414454,16.8934096875,18.2949028L12.4684092875,16.3899035L24.2100776875,11.8507366L24.2092426875,11.8507371Z" fill="#FFFFFF" fill-opacity="1" style="mix-blend-mode:passthrough"/></g></svg>