<svg xmlns="http://www.w3.org/2000/svg" xmlns:xlink="http://www.w3.org/1999/xlink" fill="none" version="1.1" width="36" height="36" viewBox="0 0 36 36"><defs><clipPath id="master_svg0_27_04665"><rect x="8.4375" y="8.4375" width="19.125" height="19.125" rx="0"/></clipPath></defs><rect x="0" y="0" width="36" height="36" rx="18" fill="#F7F6FB" fill-opacity="1"/><g clip-path="url(#master_svg0_27_04665)"><path d="M14.8125,18L14.8125,13.125Q14.8125,11.8046941,15.74609706,10.87109706Q16.6796941,9.9375,18,9.9375Q19.3203058,9.9375,20.2539029,10.87109706Q21.1874995,11.804693799999999,21.1874995,13.125L21.1874995,18Q21.1874995,19.3203058,20.2539029,20.2539024Q19.3203049,21.187500999999997,18,21.187500999999997Q16.6796949,21.187500999999997,15.74609706,20.2539024Q14.8125,19.3203058,14.8125,18ZM15.9375,18Q15.93749994,18.854314799999997,16.5415922,19.4584074Q17.1456853,20.0625,18,20.0625Q18.8543148,20.0625,19.4584079,19.4584074Q20.0625,18.854314799999997,20.0625,18L20.0625,13.125Q20.0625,12.2706844,19.4584079,11.6665922Q18.8543155,11.0625,18,11.0625Q17.1456845,11.06249994,16.5415922,11.6665922Q15.9375,12.2706845,15.9375,13.125L15.9375,18Z" fill="#333333" fill-opacity="1" style="mix-blend-mode:passthrough"/><path d="M12.93770725,17.674576622Q12.93988699,17.649836229,12.93988699,17.625Q12.93988693,17.56936349,12.9290328,17.51479602Q12.91817868,17.46022856,12.89688748,17.40882713Q12.87559628,17.35742569,12.8446863,17.31116563Q12.81377631,17.26490557,12.7744354,17.2255646Q12.73509443,17.18622369,12.68883437,17.1553137Q12.64257431,17.12440372,12.59117287,17.10311258Q12.539771439999999,17.08182138,12.48520398,17.0709672Q12.43063651,17.06011307,12.375,17.06011301Q12.31936349,17.06011307,12.26479602,17.0709672Q12.210228560000001,17.08182132,12.15882713,17.10311252Q12.10742569,17.12440372,12.06116563,17.1553137Q12.01490557,17.18622369,11.9755646,17.2255646Q11.93622369,17.26490557,11.9053137,17.31116563Q11.87440372,17.35742569,11.85311258,17.40882713Q11.831821380000001,17.46022856,11.8209672,17.51479602Q11.81011307,17.56936349,11.81011301,17.625Q11.81011301,17.652068298,11.81270117,17.679012578Q11.83162528,20.2070799,13.6247724,22.000227Q15.4370453,23.8125,18,23.8125Q20.5629539,23.8125,22.375227000000002,22.000227Q24.168366,20.207088,24.187297,17.679031368Q24.189887,17.652077759,24.189887,17.625Q24.189886,17.56936349,24.179032,17.51479602Q24.168179000000002,17.46022856,24.146887,17.40882713Q24.125596,17.35742569,24.094686,17.31116563Q24.063776,17.26490557,24.024435,17.2255646Q23.985094,17.18622369,23.938833000000002,17.1553137Q23.892573,17.12440372,23.841172,17.10311258Q23.78977,17.08182138,23.735203,17.0709672Q23.680635000000002,17.06011307,23.625,17.06011301Q23.569363,17.06011307,23.514795,17.0709672Q23.460228,17.08182132,23.408825999999998,17.10311252Q23.357424,17.12440372,23.311165000000003,17.1553137Q23.264904,17.18622369,23.225564,17.2255646Q23.186222,17.26490557,23.155313,17.31116563Q23.124403,17.35742569,23.103111,17.40882713Q23.08182,17.46022856,23.070967,17.51479602Q23.060112,17.56936349,23.060113,17.625Q23.060113,17.649833139,23.062292,17.674570478Q23.044944,19.739521,21.5797329,21.2047322Q20.0969644,22.6875,18,22.6875Q15.9030349,22.6875,14.420267599999999,21.2047322Q12.95505774,19.7395222,12.93770725,17.674576622Z" fill-rule="evenodd" fill="#333333" fill-opacity="1" style="mix-blend-mode:passthrough"/><path d="M18.5625,23.301875412Q18.56488699,23.275992623,18.56488699,23.25Q18.56488693,23.19436349,18.5540328,23.13979602Q18.54317868,23.08522856,18.52188748,23.03382713Q18.50059628,22.98242569,18.4696863,22.93616563Q18.43877631,22.88990557,18.3994354,22.8505646Q18.36009443,22.81122369,18.31383437,22.7803137Q18.26757431,22.74940372,18.21617287,22.72811258Q18.16477144,22.70682138,18.11020398,22.6959672Q18.05563651,22.68511307,18,22.68511301Q17.94436349,22.68511307,17.88979602,22.6959672Q17.83522856,22.70682132,17.78382713,22.72811252Q17.73242569,22.74940372,17.68616563,22.7803137Q17.63990557,22.81122369,17.6005646,22.8505646Q17.56122369,22.88990557,17.5303137,22.93616563Q17.49940372,22.98242569,17.47811258,23.03382713Q17.45682138,23.08522856,17.4459672,23.13979602Q17.43511307,23.19436349,17.43511301,23.25Q17.43511301,23.275992623,17.4375,23.301875412L17.4375,25.4481246Q17.43511301,25.4740074,17.43511301,25.5Q17.43511307,25.5556364,17.4459672,25.610204Q17.45682132,25.664771299999998,17.47811252,25.7161727Q17.49940372,25.7675741,17.5303137,25.8138342Q17.56122369,25.8600943,17.6005646,25.8994353Q17.63990557,25.9387763,17.68616563,25.969686Q17.73242569,26.000596,17.78382713,26.0218873Q17.83522856,26.0431786,17.88979602,26.0540326Q17.94436349,26.064887,18,26.064887Q18.05563651,26.064887,18.11020398,26.0540328Q18.16477144,26.0431786,18.21617287,26.0218873Q18.26757431,26.000596,18.31383437,25.9696863Q18.36009443,25.9387763,18.3994354,25.8994353Q18.43877631,25.8600943,18.4696863,25.8138342Q18.50059628,25.7675741,18.52188742,25.7161727Q18.54317862,25.664771299999998,18.5540328,25.6102037Q18.56488693,25.5556364,18.56488699,25.5Q18.56488699,25.4740074,18.5625,25.4481246L18.5625,23.301875412Z" fill-rule="evenodd" fill="#333333" fill-opacity="1" style="mix-blend-mode:passthrough"/></g></svg>